# Blender v2.92.0 OBJ File: 'cross.blend'
# www.blender.org
mtllib cross.mtl
o Cube.001_Cube.002
v -0.000000 0.000000 -0.356178
v -0.500000 0.000000 -0.866025
v -0.866025 0.000000 -0.500000
v -0.356178 0.000000 0.000000
v -0.866025 0.000000 0.500000
v -0.500000 0.000000 0.866025
v -0.000000 0.000000 0.356178
v 0.500000 0.000000 0.866025
v 0.866025 0.000000 0.500000
v 0.356178 0.000000 0.000000
v 0.866026 0.000000 -0.500000
v 0.500001 0.000000 -0.866025
v -0.000000 -0.030791 -0.356178
v -0.500000 -0.030791 -0.866025
v -0.866025 -0.030791 -0.500000
v -0.356178 -0.030791 0.000000
v -0.866025 -0.030791 0.500000
v -0.500000 -0.030791 0.866025
v -0.000000 -0.030791 0.356178
v 0.500000 -0.030791 0.866025
v 0.866025 -0.030791 0.500000
v 0.356178 -0.030791 0.000000
v 0.866026 -0.030791 -0.500000
v 0.500001 -0.030791 -0.866025
vt 0.000000 0.000000
vt 0.000000 0.000000
vt 0.000000 0.000000
vt 0.000000 0.000000
vt 0.000000 0.000000
vt 0.000000 0.000000
vt 0.000000 0.000000
vt 0.000000 0.000000
vt 0.000000 0.000000
vt 0.000000 0.000000
vt 0.000000 0.000000
vt 0.000000 0.000000
vt 0.000000 0.000000
vt 0.000000 0.000000
vt 0.000000 0.000000
vt 0.000000 0.000000
vt 0.000000 0.000000
vt 0.000000 0.000000
vt 0.000000 0.000000
vt 0.000000 0.000000
vt 0.000000 0.000000
vt 0.000000 0.000000
vt 0.000000 0.000000
vt 0.000000 0.000000
vn 0.0000 1.0000 0.0000
vn -0.7071 0.0000 -0.7071
vn -0.7002 0.0000 0.7140
vn -0.7002 0.0000 -0.7140
vn -0.7071 0.0000 0.7071
vn 0.7140 0.0000 0.7002
vn 0.7071 0.0000 -0.7071
vn 0.7140 0.0000 -0.7002
vn -0.7140 0.0000 -0.7002
vn -0.7140 0.0000 0.7002
vn 0.7071 0.0000 0.7071
vn 0.7002 0.0000 -0.7140
vn 0.7002 0.0000 0.7140
usemtl None
s off
f 17/1/1 18/2/1 19/3/1 20/4/1 21/5/1 22/6/1 23/7/1 24/8/1 13/9/1 14/10/1 15/11/1 16/12/1
f 2/13/1 3/14/1 4/15/1 5/16/1 6/17/1 7/18/1 8/19/1 9/20/1 10/21/1 11/22/1 12/23/1 1/24/1
f 3/14/2 2/13/2 14/10/2 15/11/2
f 15/11/3 16/12/3 4/15/3 3/14/3
f 16/12/4 17/1/4 5/16/4 4/15/4
f 17/1/5 18/2/5 6/17/5 5/16/5
f 18/2/6 19/3/6 7/18/6 6/17/6
f 12/23/7 11/22/7 23/7/7 24/8/7
f 2/13/8 1/24/8 13/9/8 14/10/8
f 13/9/9 1/24/9 12/23/9 24/8/9
f 8/19/10 7/18/10 19/3/10 20/4/10
f 20/4/11 21/5/11 9/20/11 8/19/11
f 21/5/12 22/6/12 10/21/12 9/20/12
f 22/6/13 23/7/13 11/22/13 10/21/13
