# Blender v2.92.0 OBJ File: 'pentagon.blend'
# www.blender.org
mtllib pentagon.mtl
o Circle
v 0.000000 0.000000 -1.000000
v -0.951057 0.000000 -0.309017
v -0.587785 0.000000 0.809017
v 0.587785 0.000000 0.809017
v 0.951056 0.000000 -0.309017
l 2 1
l 3 2
l 4 3
l 5 4
l 1 5
o Circle.001
v 0.000000 0.000000 -1.000000
v -0.951057 0.000000 -0.309017
v -0.587785 0.000000 0.809017
v 0.587785 0.000000 0.809017
v 0.951056 0.000000 -0.309017
v 0.000000 0.029721 -1.000000
v -0.951057 0.029721 -0.309017
v -0.587785 0.029721 0.809017
v 0.587785 0.029721 0.809017
v 0.951056 0.029721 -0.309017
vt 0.000000 0.000000
vt 0.000000 0.000000
vt 0.000000 0.000000
vt 0.000000 0.000000
vt 0.000000 0.000000
vt 0.000000 0.000000
vt 0.000000 0.000000
vt 0.000000 0.000000
vt 0.000000 0.000000
vt 0.000000 0.000000
vn 0.0000 -1.0000 -0.0000
vn -0.9511 0.0000 -0.3090
vn -0.5878 0.0000 0.8090
vn 0.5878 0.0000 0.8090
vn 0.9511 0.0000 -0.3090
vn -0.0000 0.0000 -1.0000
vn 0.0000 1.0000 0.0000
usemtl None
s off
f 13/1/1 12/2/1 11/3/1 15/4/1 14/5/1
f 9/6/2 14/5/2 15/4/2 10/7/2
f 10/7/3 15/4/3 11/3/3 6/8/3
f 6/8/4 11/3/4 12/2/4 7/9/4
f 7/9/5 12/2/5 13/1/5 8/10/5
f 8/10/6 13/1/6 14/5/6 9/6/6
f 7/9/7 8/10/7 9/6/7 10/7/7 6/8/7
