# Blender v2.92.0 OBJ File: 'star.blend'
# www.blender.org
mtllib star.mtl
o Circle
v 0.000000 0.000000 -1.000000
v -0.252064 0.000000 -0.346937
v -0.951057 0.000000 -0.309017
v -0.407849 0.000000 0.132518
v -0.587785 0.000000 0.809017
v 0.000000 0.000000 0.428838
v 0.587785 0.000000 0.809017
v 0.407849 0.000000 0.132518
v 0.951056 0.000000 -0.309017
v 0.252064 0.000000 -0.346937
v 0.000000 0.018891 -1.000000
v -0.252064 0.018891 -0.346937
v -0.951057 0.018891 -0.309017
v -0.407849 0.018891 0.132518
v -0.587785 0.018891 0.809017
v 0.000000 0.018891 0.428838
v 0.587785 0.018891 0.809017
v 0.407849 0.018891 0.132518
v 0.951056 0.018891 -0.309017
v 0.252064 0.018891 -0.346937
vt 0.000000 0.000000
vt 0.000000 0.000000
vt 0.000000 0.000000
vt 0.000000 0.000000
vt 0.000000 0.000000
vt 0.000000 0.000000
vt 0.000000 0.000000
vt 0.000000 0.000000
vt 0.000000 0.000000
vt 0.000000 0.000000
vt 0.000000 0.000000
vt 0.000000 0.000000
vt 0.000000 0.000000
vt 0.000000 0.000000
vt 0.000000 0.000000
vt 0.000000 0.000000
vt 0.000000 0.000000
vt 0.000000 0.000000
vt 0.000000 0.000000
vt 0.000000 0.000000
vn 0.0000 -1.0000 0.0000
vn 0.0000 1.0000 0.0000
vn 0.9329 0.0000 0.3601
vn 0.0542 0.0000 0.9985
vn 0.6307 0.0000 -0.7760
vn 0.9664 0.0000 0.2570
vn -0.5431 0.0000 -0.8397
vn 0.5431 0.0000 -0.8397
vn -0.9664 0.0000 0.2570
vn -0.6307 0.0000 -0.7760
vn -0.0542 0.0000 0.9985
vn -0.9329 0.0000 0.3601
usemtl None
s off
f 12/1/1 11/2/1 20/3/1 19/4/1 18/5/1 17/6/1 16/7/1 15/8/1 14/9/1 13/10/1
f 2/11/2 3/12/2 4/13/2 5/14/2 6/15/2 7/16/2 8/17/2 9/18/2 10/19/2 1/20/2
f 1/20/3 11/2/3 12/1/3 2/11/3
f 12/1/4 13/10/4 3/12/4 2/11/4
f 13/10/5 14/9/5 4/13/5 3/12/5
f 14/9/6 15/8/6 5/14/6 4/13/6
f 15/8/7 16/7/7 6/15/7 5/14/7
f 16/7/8 17/6/8 7/16/8 6/15/8
f 17/6/9 18/5/9 8/17/9 7/16/9
f 18/5/10 19/4/10 9/18/10 8/17/10
f 19/4/11 20/3/11 10/19/11 9/18/11
f 20/3/12 11/2/12 1/20/12 10/19/12
